<svg xmlns="http://www.w3.org/2000/svg" viewBox="0 0 924.46 299.09"><defs><style>.cls-1{fill:#61215c;}.cls-2{fill:#e9b2d2;}.cls-3{fill:#fff;}</style></defs><g id="Camada_4" data-name="Camada 4"><path class="cls-1" d="M96,206.63a43,43,0,0,0-21,18.23c-.16.27-.3.56-.46.83-3.45,5.83-5.65,6.61-12.05,4.22-10.07-3.76-17.67-11.19-26-17.53a30.5,30.5,0,0,1-11.28-17.24,54.43,54.43,0,0,1-1.94-14.48c.18-8-2.33-15.47-4.36-23-2.93-10.92-3.24-21.92-2-33.14,1.45-12.85,8.2-23,15.55-32.93a25.67,25.67,0,0,1,6-5.71C49.72,77.93,61.57,80.69,70.54,93c5.52,7.58,12.38,13.63,21.41,16.9,2.41.87,3.42,1.22,3.25-2.18-.65-12.87,2.16-24.87,10-35.39,4.37-5.86,10.82-9.06,16.67-13.08,7.92-5.45,16.93-7.69,26.05-9.72,15.38-3.41,30.15-8.65,44.79-14.37a59.4,59.4,0,0,0,11.19-5.24c9.13-6,18.77-5,28.47-1.81,8.56,2.79,16.91,6.21,25.69,8.37,12.18,3,24.56,4.87,36.84,7.29C307.6,46.29,320,50,332.61,52.88c17.76,4.06,35.23,9.56,53.41,11.67a120.46,120.46,0,0,0,23.79,0,176.58,176.58,0,0,1,35.88,1.11c10.51,1.31,21.12,1.9,31.71,2.55,16.2,1,32.37,2.28,48.53,3.7,11.84,1,23.74,1.41,35.61,2.2a770.34,770.34,0,0,1,80.93,9.67C663.6,87.43,684.3,93,705.3,97.22c4.63.93,9,3.17,13.49,4.74,16,5.57,31.1,13,45.86,21.19C775.79,129.3,786,137,796.15,144.7c17.67,13.27,36.56,24.78,54.42,37.78,16.15,11.77,31.18,24.91,46.2,38.05A54.11,54.11,0,0,1,905.54,231c3.28,4.8,2.24,9.75-.21,14.48-6,11.62-15.76,17.8-28.57,19.93-7.2,1.2-14.23,3.29-21.65,3.19a197.28,197.28,0,0,1-43.37-5.85c-10.09-2.41-20.25-4.74-30.59-5.84-11.57-1.24-22.71,1.57-33.91,4.09-12.62,2.84-23.56,9.44-35.11,14.7-5.79,2.64-11.73,4.94-17.51,7.61-12,5.54-23.53,4.36-34.67-2.2-6.76-4-13.49-8.05-20-12.49a45.13,45.13,0,0,0-26-8.1c-4.13,0-7.75-1-10.14-4.77a10.71,10.71,0,0,1-1.91-4.67c-.24-3.36-2.31-4-5-3.84q-8.1.38-16.19,1c-11.55.87-22.7,4.33-34.21,5.42-6.89.65-13.77-.53-20.58-1.5-11-1.56-22-1.79-33-2.34-7.2-.36-14.4-1.31-21.61-.7-10.84.92-21,3.56-29.27,11.46-6.48,6.22-15.06,6.27-23.28,7-10.79,1-21.59,1.51-32.41.16-2-.25-4,.23-6,.2-5.76-.09-8.52-2.91-8.65-8.66-.08-3.29-.14-6.58-.32-9.86-.07-1.38-.62-2.06-2.25-1.29a433.66,433.66,0,0,1-42.35,17.31c-9.7,3.39-19,8-29.09,10.19-9.53,2-19.19,3.45-28.73,5.45a95.68,95.68,0,0,0-12.9,3.2c-4,1.42-8.38.62-12.59,1.46-8.49,1.69-16.83,4.46-25.7,4a29.37,29.37,0,0,1-9.91-2c-7.94-3.3-15.9-6.52-24.67-6.92-2.25-.1-4.52-.26-6.6.63-9.14,3.9-17.69,1.29-26.11-2.31-4.67-2-9.16-4.44-13.79-6.54-2.26-1-4.78-.81-7.21-.8-13.36,0-25.44-3.57-35.15-13.09-8.37-8.19-11.81-17.94-9-29.78,1.92-8.24,6.48-14.88,11.22-21.52.21-.27.67-.48.33-.89S96.27,206.48,96,206.63Zm753.71,52.13c9.73-.29,17.9-.48,25.68-4.22,6.07-2.9,11-7,16.09-11.26,1.83-1.52,1.77-2.51.71-4.41-8.77-15.71-21.76-27.66-35.31-38.94-10-8.29-21.82-13.93-32.4-21.35-23.75-16.65-49.17-30.65-73.11-46.94-14.52-9.88-29.91-17.9-46.71-22.78-14.74-4.28-29.54-8.47-44.78-10.84-6.17-1-12.2-2.79-18.37-3.74-8-1.23-16.06-1.59-24-3-13.16-2.38-26.36-4.52-39.65-5.8-15.94-1.55-31.75-4.26-47.72-5.52-17.94-1.42-35.78-4.07-53.91-3-14.49.82-29,.67-43.57.93-7.63.14-15.25.84-22.89,0-5.8-.64-11.61-1.3-17.44-1.56a70.82,70.82,0,0,1-13.5-1.69c-11.44-2.77-22.67-6.29-34-9.49-17.85-5-36.11-8.5-54.17-12.77a695,695,0,0,0-69.34-13.19c-9.8-1.28-19.51-.75-27.79,6-2.29,1.86-4.92,3.3-7.29,5.11a44.77,44.77,0,0,1-13.43,7.08c-9.17,3-18.36,4.75-28.11,4.08-4.86-.34-10-.25-14.48,2.65A82.61,82.61,0,0,0,116,75.34c-5.62,5.73-9.85,12-7.81,20.69a13.89,13.89,0,0,1,.07,1.59c.87,7.51-1.64,14.51-3.67,21.49-1.7,5.88-5.72,7-10.82,3.59a127.64,127.64,0,0,0-11.41-7,22.08,22.08,0,0,1-5.32-4,183.51,183.51,0,0,0-15.19-14c-8.53-6.91-18.07-5.4-23.6,4.06-1.39,2.38-2.68,4.83-4,7.24a6.3,6.3,0,0,0-1,4c1.33,9.78,1.53,19.68,2.67,29.47,1.26,10.68,1.19,21.22-1.22,31.64-2.5,10.79.55,19.61,8.17,27.26,4.44,4.46,9.65,8,14.4,12,1.62,1.38,3.35,2.67,4,4.82,1,3.38,1.74,3.72,4.87,2a12.31,12.31,0,0,0,3.54-2.65c4.44-5.46,10.27-9.64,14.52-15.16,7.25-9.45,17.52-10.75,28.11-11.65,2.24-.19,3.82,1,4.78,3a4.57,4.57,0,0,1-.74,5.33,17.77,17.77,0,0,1-3,2.83,50.53,50.53,0,0,0-18.29,24.34c-2.56,7.05-3.3,14.9,1.92,21.56a41.26,41.26,0,0,0,14.69,12,7.37,7.37,0,0,0,2.7.9c8.52.41,16.76,2.51,25.13,3.87,5,.82,9.9,1.9,13.84,5.15,5.76,4.74,11.78,5,18.28,2a6.89,6.89,0,0,1,.91-.29,15.68,15.68,0,0,1,9.68-.28c6,1.82,12,3.56,18.07,5,6.36,1.51,12.7,3.69,19.4,1.87a51.51,51.51,0,0,1,19.25-1.8c9.29,1.05,18.22-.43,27.07-2.71,12.62-3.26,25.05-7.32,37.75-10.23,22.6-5.18,43.68-14.32,64.69-23.73,5.71-2.56,10.69.23,11.22,6.62.18,2.21.06,4.45.07,6.69,0,7.08.7,7.69,7.86,6.95a126.5,126.5,0,0,1,23.19-.63,65.2,65.2,0,0,0,11.77-.15c6.81-.69,11.69-5.22,16.79-9.18a36,36,0,0,1,9.74-5.87c10.63-3.86,21.42-4,32.58-3.23,15.87,1.16,31.74,2.33,47.62,3.27,12.4.73,25,1,37.08-2.09a97.88,97.88,0,0,1,33-3.09c10.36.89,10.06-.19,11.46,10.11.35,2.63,1.33,3.4,4,3.57,11,.68,21.63,2.74,30.71,9.82a86.69,86.69,0,0,0,13,8c14,7.4,28.29,8.26,42.26.46,9.82-5.47,19.53-11.07,29.85-15.64,9.51-4.21,19.53-6.47,29.57-8.35,6.14-1.15,12.74-.5,19.06.14,12.16,1.23,23.9,4.78,35.78,7.5A175.88,175.88,0,0,0,849.68,258.76Z"/><path class="cls-2" d="M849.68,258.76a175.88,175.88,0,0,1-34.47-4.3c-11.88-2.72-23.62-6.27-35.78-7.5-6.32-.64-12.92-1.29-19.06-.14-10,1.88-20.06,4.14-29.57,8.35-10.32,4.57-20,10.17-29.85,15.64-14,7.8-28.25,6.94-42.26-.46a86.69,86.69,0,0,1-13-8c-9.08-7.08-19.69-9.14-30.71-9.82-2.66-.17-3.64-.94-4-3.57-1.4-10.3-1.1-9.22-11.46-10.11a97.88,97.88,0,0,0-33,3.09c-12.1,3.11-24.68,2.82-37.08,2.09-15.88-.94-31.75-2.11-47.62-3.27-11.16-.81-21.95-.63-32.58,3.23a36,36,0,0,0-9.74,5.87c-5.1,4-10,8.49-16.79,9.18a65.2,65.2,0,0,1-11.77.15,126.5,126.5,0,0,0-23.19.63c-7.16.74-7.84.13-7.86-6.95,0-2.24.11-4.48-.07-6.69-.53-6.39-5.51-9.18-11.22-6.62-21,9.41-42.09,18.55-64.69,23.73-12.7,2.91-25.13,7-37.75,10.23-8.85,2.28-17.78,3.76-27.07,2.71a51.51,51.51,0,0,0-19.25,1.8c-6.7,1.82-13-.36-19.4-1.87-6.08-1.45-12.09-3.19-18.07-5a15.68,15.68,0,0,0-9.68.28,6.89,6.89,0,0,0-.91.29c-6.5,3-12.52,2.7-18.28-2-3.94-3.25-8.83-4.33-13.84-5.15-8.37-1.36-16.61-3.46-25.13-3.87a7.37,7.37,0,0,1-2.7-.9,41.26,41.26,0,0,1-14.69-12c-5.22-6.66-4.48-14.51-1.92-21.56a50.53,50.53,0,0,1,18.29-24.34,17.77,17.77,0,0,0,3-2.83,4.57,4.57,0,0,0,.74-5.33c-1-2-2.54-3.24-4.78-3-10.59.9-20.86,2.2-28.11,11.65-4.25,5.52-10.08,9.7-14.52,15.16a12.31,12.31,0,0,1-3.54,2.65c-3.13,1.75-3.83,1.41-4.87-2-.67-2.15-2.4-3.44-4-4.82-4.75-4.08-10-7.59-14.4-12-7.62-7.65-10.67-16.47-8.17-27.26,2.41-10.42,2.48-21,1.22-31.64-1.14-9.79-1.34-19.69-2.67-29.47a6.3,6.3,0,0,1,1-4c1.33-2.41,2.62-4.86,4-7.24,5.53-9.46,15.07-11,23.6-4.06a183.51,183.51,0,0,1,15.19,14,22.08,22.08,0,0,0,5.32,4,127.64,127.64,0,0,1,11.41,7c5.1,3.44,9.12,2.29,10.82-3.59,2-7,4.54-14,3.67-21.49a13.89,13.89,0,0,0-.07-1.59c-2-8.65,2.19-15,7.81-20.69a82.61,82.61,0,0,1,14.19-11.27c4.47-2.9,9.62-3,14.48-2.65,9.75.67,18.94-1.11,28.11-4.08a44.77,44.77,0,0,0,13.43-7.08c2.37-1.81,5-3.25,7.29-5.11,8.28-6.76,18-7.29,27.79-6a695,695,0,0,1,69.34,13.19C308.73,56.6,327,60.05,344.84,65.1c11.31,3.2,22.54,6.72,34,9.49a70.82,70.82,0,0,0,13.5,1.69c5.83.26,11.64.92,17.44,1.56,7.64.83,15.26.13,22.89,0,14.53-.26,29.08-.11,43.57-.93,18.13-1,36,1.62,53.91,3,16,1.26,31.78,4,47.72,5.52,13.29,1.28,26.49,3.42,39.65,5.8,7.92,1.43,16,1.79,24,3,6.17,1,12.2,2.78,18.37,3.74,15.24,2.37,30,6.56,44.78,10.84,16.8,4.88,32.19,12.9,46.71,22.78,23.94,16.29,49.36,30.29,73.11,46.94,10.58,7.42,22.45,13.06,32.4,21.35,13.55,11.28,26.54,23.23,35.31,38.94,1.06,1.9,1.12,2.89-.71,4.41-5.06,4.21-10,8.36-16.09,11.26C867.58,258.28,859.41,258.47,849.68,258.76ZM259.47,102.92c-2.37.29-3.84.41-5.29.65a205.17,205.17,0,0,0-29.79,7.78c-12.37,4-25,7.08-37.3,11.51-5.39,1.94-10.19,5.26-15.88,6.46-9.36,2-18.51,4.54-27.18,8.76a34.51,34.51,0,0,1-18.89,3.43,56.59,56.59,0,0,0-16.14.68c-7.23,1.28-13.38-.86-19.15-4.87q-12.3-8.52-24.57-17.08c-3.82-2.66-6.89-1.3-7.06,3.4a28.88,28.88,0,0,1-1.57,8.07c-1.19,3.63-2.41,7.24-3.59,10.87-1,3.17-1.67,6.42-.77,9.69a73.11,73.11,0,0,1,2.19,17.31,128.7,128.7,0,0,1,0,13,32,32,0,0,0,1.2,11.64c2.54,8.32,10.24,11.51,17.88,7.41a49.81,49.81,0,0,0,5.82-3.87q10.48-7.78,20.89-15.67a5,5,0,0,1,5.52-.75c4.6,1.88,9.4,3.3,14,5.08,15.28,5.81,30.77,10.87,46.84,14.08,6.32,1.26,12.78,2.06,18.76,4.74A231.19,231.19,0,0,0,215.28,216a233.87,233.87,0,0,0,35.13,7.3c7.9,1,15.37,3.78,23.21,5.14a169.64,169.64,0,0,0,37,2,394.29,394.29,0,0,0,41-3.95c15.11-2.27,30.23-4.4,45.43-5.86,3.69-.36,3.81-.2,2.43,3.18-2.52,6.19-5,12.39-7.62,18.55-.7,1.65-.52,2.58,1.39,2.9a85,85,0,0,0,27.57.4c14.21-2.32,23.82-11.88,33.09-21.74a19.15,19.15,0,0,1,8.17-5.13c2.81-.92,5.11.38,6.77,2.88,1.19,1.79.37,5,2.53,5.55,1.91.45,4.25-.92,6.41-1.46a8.32,8.32,0,0,1,1.58-.19c13.88-.62,27.74-1.64,41.61-2.25,22.16-1,44.35-1.45,66.53-.33A28.06,28.06,0,0,1,599,226.34a54.61,54.61,0,0,1,14.54,10.72,14.3,14.3,0,0,0,12.66,4.53c3.38-.41,6.7-1,10-1.74,1.55-.33,3.07-.41,3.64,1.51,2.44,8.16,9,12.27,15.76,16.22,5.09,3,10.33,3.08,16,1.8,10-2.29,19.94-4.85,29.88-7.38,12.34-3.14,24.16-7.32,35.06-13.89a10,10,0,0,1,6.6-1.59c2.52.29,5.09.26,7.6.64a198.71,198.71,0,0,0,39.66,2.4,60.35,60.35,0,0,1,10.5.32c11.56,1.49,23.11,2.47,34.79,1.77s23.42-2.6,35.14-3.74c1.6-.16,3.32.16,5.68-1-13.08-6.51-22.3-16.76-32.64-25.66A444.12,444.12,0,0,0,804,181.16a229.62,229.62,0,0,0-42.27-23.25c-7.17-2.94-14.3-5.94-21.23-9.43-7.67-3.86-15.43-7.58-23.33-10.92-24.38-10.28-50.28-15.4-75.83-21.53-15.26-3.67-31-5.25-46.37-8.3-10.81-2.14-21.65-4.19-32.73-4.79-5.59-.31-11.23.26-16.8-1-14.15-3.3-28.58-5.06-43-6.9-23.44-3-47.05-4.5-70.44-8.15-15.5-2.42-31.14-4-46.88-2.83-21.06,1.63-42.09,3.64-62.93,7.15a149,149,0,0,0-19.74,4.49c3.17,1,5,2.48,4.95,5.53s-2,4.63-4.53,5.9a8.15,8.15,0,0,0-3.05,12.28c3.4,4.8,3.09,9.52.12,14.25a28.31,28.31,0,0,1-3.6,4.44c-1.74,1.82-1.81,3.34.13,5.11a30.88,30.88,0,0,1,7.32,9.94c1.89,4.09,1.4,8.12-1.34,10.53-2.52,2.22-6.49,2-10.34-.46a25.12,25.12,0,0,1-7.9-8.59c-5.64-9.52-5.54-21.08.86-28.29,2.29-2.58,2.41-4.75,1.55-7.68-2.4-8.08.3-15.12,7.46-19.74a4.59,4.59,0,0,0,2-2.08l-12.36,2c-1.12.19-1.68.53-1.69,2a9.1,9.1,0,0,1-3.77,7.37,28.83,28.83,0,0,0-5.67,6c-2.32,3.19-2.56,8.43-.6,10.7,3.07,3.55,3,5.31,0,9.13-2,2.59-4.77,4.59-4.55,8.68.28,5.24,3.55,8.52,6.55,12,3.58,4.18,3.85,6.26.54,10.71a26.64,26.64,0,0,1-4.73,4.7c-4.32,3.49-4.68,4.75-2.08,9.69,3.31,6.26,3.24,12.21-1.23,17.84-1.8,2.26-1.54,4.23.22,6.25,2,2.32,4.16,4.55,6.05,7,2.66,3.41,2.61,6.93,0,9.5-2.43,2.38-5.35,1.73-8.1.92-14.21-4.19-20.26-18.22-13.62-31.62.83-1.67.57-2.13-1.16-2.8-7.18-2.76-12.25-7.52-13.59-15.45-1.16-6.89.73-13,4.93-18.49a4.71,4.71,0,0,0,1-4.86c-3.29-10.78-1.69-17.24,8.46-25.71,2.36-2,3.55-3.35,3.18-6.55C253.35,111.09,256,107.2,259.47,102.92ZM128.77,112c-.21,2.91-.22,6.42,3.42,8,4.14,1.83,8.52,2.66,13,.77,5.18-2.21,10.51-4,15.86-5.68,7.45-2.4,14.51-6,22.35-7.22,5.35-.81,10.92-.91,16-2.52,20.26-6.41,41.07-10.45,61.79-14.83,32.31-6.84,65.07-10.75,97.9-14.14,1-.11,2.67.43,2.86-1.22s-1.19-2.37-2.52-2.89a10.43,10.43,0,0,0-1.86-.4c-13.82-2.76-27.64-5.48-41.17-9.54a85.92,85.92,0,0,0-17.19-3.1c-13.8-1.2-27.2,2.6-40.88,2.78-10.16.13-20.31,1.37-30.5.57-4.86-.39-9.76-.82-14.54.71-4.07,1.29-7.71,3.53-11.53,5.36-2.13,1-3.47.51-4.17-1.68-.61-1.92-1.11-3.87-1.72-5.79-1.25-3.87-4.19-5.33-7.94-3.82a22.15,22.15,0,0,0-11.7,9.85,18,18,0,0,1-7.58,7.48c-7.16,3.78-14.89,6.08-22.51,8.69-5.5,1.88-10.77,4.46-13.45,9.92A40.37,40.37,0,0,0,128.77,112ZM354.91,238.28a27,27,0,0,0-6.17.44c-12.06,2.48-24.17,4.58-36.56,4.23-.83,0-1.67.21-2.51.26a144.7,144.7,0,0,1-22.23-.11c-6-.6-11.94-1.51-17.9-2.29-7.67-1-15.45-1.73-22.72-4.44-13.34-5-27.21-8-40.93-11.55-10.76-2.79-21.52-5.52-31.89-9.66-12.27-4.9-24-11.09-37-14.37-10.21-2.59-7.4-3.59-14.08,4.36-5.67,6.76-9,14.53-8.27,23.7.44,5.37,4.24,8.28,9.27,6.81a28.22,28.22,0,0,1,6.54-1.17c6.63-.35,11.63,2.79,15.88,7.38,3.88,4.2,8.53,6.58,14.28,6.44,2.63-.06,5.27-.45,7.9-.75,7.16-.83,14.18-.64,20.84,2.56,6.95,3.35,12.72,8.42,18.95,12.81,5.3,3.74,10.89,6,17.59,3.92a61,61,0,0,1,9.35-1.78c10.7-1.51,21.32-3.68,32.22-3.4a23,23,0,0,0,6.6-.82c17.15-4.66,34.68-7.77,51.68-13.12C335.24,244.75,345,242.89,354.91,238.28Zm-99.07-85.23c-2,3.27-5.92,5-6.73,9.31s.63,7.5,3.13,11.18a16.05,16.05,0,0,1,3.89-11C259.12,159,258.91,156.2,255.84,153.05Zm.24-19.35c-5.84,3.39-6.26,12.49-1.21,15.33A30.35,30.35,0,0,1,256.08,133.7Z"/><path class="cls-3" d="M96,206.63c.3-.15.62-.52,1-.12s-.12.62-.33.89C96.39,207.14,96.18,206.89,96,206.63Z"/><path class="cls-1" d="M259.47,102.92c-3.45,4.28-6.12,8.17-5.57,13,.37,3.2-.82,4.59-3.18,6.55-10.15,8.47-11.75,14.93-8.46,25.71a4.71,4.71,0,0,1-1,4.86c-4.2,5.44-6.09,11.6-4.93,18.49,1.34,7.93,6.41,12.69,13.59,15.45,1.73.67,2,1.13,1.16,2.8-6.64,13.4-.59,27.43,13.62,31.62,2.75.81,5.67,1.46,8.1-.92,2.63-2.57,2.68-6.09,0-9.5-1.89-2.43-4-4.66-6.05-7-1.76-2-2-4-.22-6.25,4.47-5.63,4.54-11.58,1.23-17.84-2.6-4.94-2.24-6.2,2.08-9.69a26.64,26.64,0,0,0,4.73-4.7c3.31-4.45,3-6.53-.54-10.71-3-3.49-6.27-6.77-6.55-12-.22-4.09,2.55-6.09,4.55-8.68,2.94-3.82,3-5.58,0-9.13-2-2.27-1.72-7.51.6-10.7a28.83,28.83,0,0,1,5.67-6,9.1,9.1,0,0,0,3.77-7.37c0-1.5.57-1.84,1.69-2l12.36-2a4.59,4.59,0,0,1-2,2.08c-7.16,4.62-9.86,11.66-7.46,19.74.86,2.93.74,5.1-1.55,7.68-6.4,7.21-6.5,18.77-.86,28.29a25.12,25.12,0,0,0,7.9,8.59c3.85,2.49,7.82,2.68,10.34.46,2.74-2.41,3.23-6.44,1.34-10.53a30.88,30.88,0,0,0-7.32-9.94c-1.94-1.77-1.87-3.29-.13-5.11a28.31,28.31,0,0,0,3.6-4.44c3-4.73,3.28-9.45-.12-14.25a8.15,8.15,0,0,1,3.05-12.28c2.54-1.27,4.46-2.78,4.53-5.9s-1.78-4.49-4.95-5.53a149,149,0,0,1,19.74-4.49c20.84-3.51,41.87-5.52,62.93-7.15,15.74-1.21,31.38.41,46.88,2.83,23.39,3.65,47,5.16,70.44,8.15,14.38,1.84,28.81,3.6,43,6.9,5.57,1.3,11.21.73,16.8,1,11.08.6,21.92,2.65,32.73,4.79,15.41,3,31.11,4.63,46.37,8.3,25.55,6.13,51.45,11.25,75.83,21.53,7.9,3.34,15.66,7.06,23.33,10.92,6.93,3.49,14.06,6.49,21.23,9.43A229.62,229.62,0,0,1,804,181.16a444.12,444.12,0,0,1,39.84,30.13c10.34,8.9,19.56,19.15,32.64,25.66-2.36,1.12-4.08.8-5.68,1-11.72,1.14-23.36,3-35.14,3.74s-23.23-.28-34.79-1.77a60.35,60.35,0,0,0-10.5-.32,198.71,198.71,0,0,1-39.66-2.4c-2.51-.38-5.08-.35-7.6-.64a10,10,0,0,0-6.6,1.59c-10.9,6.57-22.72,10.75-35.06,13.89-9.94,2.53-19.87,5.09-29.88,7.38-5.63,1.28-10.87,1.18-16-1.8-6.78-3.95-13.32-8.06-15.76-16.22-.57-1.92-2.09-1.84-3.64-1.51-3.31.7-6.63,1.33-10,1.74a14.3,14.3,0,0,1-12.66-4.53A54.61,54.61,0,0,0,599,226.34,28.06,28.06,0,0,0,587.54,223c-22.18-1.12-44.37-.65-66.53.33-13.87.61-27.73,1.63-41.61,2.25a8.32,8.32,0,0,0-1.58.19c-2.16.54-4.5,1.91-6.41,1.46-2.16-.51-1.34-3.76-2.53-5.55-1.66-2.5-4-3.8-6.77-2.88a19.15,19.15,0,0,0-8.17,5.13c-9.27,9.86-18.88,19.42-33.09,21.74a85,85,0,0,1-27.57-.4c-1.91-.32-2.09-1.25-1.39-2.9,2.6-6.16,5.1-12.36,7.62-18.55,1.38-3.38,1.26-3.54-2.43-3.18-15.2,1.46-30.32,3.59-45.43,5.86a394.29,394.29,0,0,1-41,3.95,169.64,169.64,0,0,1-37-2c-7.84-1.36-15.31-4.11-23.21-5.14a233.87,233.87,0,0,1-35.13-7.3,231.19,231.19,0,0,1-29.88-10.73c-6-2.68-12.44-3.48-18.76-4.74-16.07-3.21-31.56-8.27-46.84-14.08-4.65-1.78-9.45-3.2-14-5.08a5,5,0,0,0-5.52.75Q89.84,190,79.34,197.79a49.81,49.81,0,0,1-5.82,3.87c-7.64,4.1-15.34.91-17.88-7.41a32,32,0,0,1-1.2-11.64,128.7,128.7,0,0,0,0-13,73.11,73.11,0,0,0-2.19-17.31c-.9-3.27-.26-6.52.77-9.69,1.18-3.63,2.4-7.24,3.59-10.87a28.88,28.88,0,0,0,1.57-8.07c.17-4.7,3.24-6.06,7.06-3.4q12.28,8.55,24.57,17.08c5.77,4,11.92,6.15,19.15,4.87a56.59,56.59,0,0,1,16.14-.68A34.51,34.51,0,0,0,144,138.08c8.67-4.22,17.82-6.79,27.18-8.76,5.69-1.2,10.49-4.52,15.88-6.46,12.26-4.43,24.93-7.48,37.3-11.51a205.17,205.17,0,0,1,29.79-7.78C255.63,103.33,257.1,103.21,259.47,102.92ZM500.37,123a11.12,11.12,0,0,0-6.47.33c-10.17,3.27-14,16.93-10.7,25.14.48,1.19,1.19,2.28,0,3.49-5.05,5.24-5.8,11.52-4.46,18.34,1.61,8.19,5.21,14.82,13.67,17.62,1.29.43,1.87.82,1.24,2.17-3.19,6.86-.78,13,2.39,19.1,3.4,6.5,5,7.4,12.18,6.81.93-.08,2.13.14,2.59-.84s-.35-2-1-2.84c-2.15-2.61-4.62-5-6.28-8-2.71-4.87-2.35-12.73,2.73-16,2.9-1.87,3.23-4,1.71-7.18a36.41,36.41,0,0,0-2.21-3.48A10,10,0,0,1,511,163.11a5.32,5.32,0,0,0,2.25-1c2.14-2,2.17-4.72-.36-7.91a41,41,0,0,1-5.54-8.12c-2.35-5.1-1.68-8.66,2.45-12.21,2.07-1.78,2.32-3.93,1.66-6.34-.31-1.12-.8-2.19-1.14-3.3-2-6.67-.68-10.92,4.75-15.37a18.83,18.83,0,0,0,2.17-2.29c1-1.16,2.78-2.29,1.51-4a5.49,5.49,0,0,0-5.33-2.17c-4.92.65-11.89,7.94-12.41,12.86a65.32,65.32,0,0,0-.64,9.78ZM371.05,192.83c.6,7,2.22,13.36,5.91,19a17.43,17.43,0,0,0,5.44,5.3c3.2,2,6.37,2.11,8.27.31,2.43-2.32,2.71-5.58.58-9-1.17-1.89-2.65-3.58-3.92-5.41-3.83-5.53-4-8.08-.2-13.57,2.35-3.42,3.31-6.8,1.46-10.72a14.89,14.89,0,0,1-.85-3.06c-1.13-4.79-.22-7,3.94-9.64a36.8,36.8,0,0,0,3.94-2.67c4.46-3.72,4.65-8.82.63-13-1.48-1.53-3-3.06-4.3-4.7-3.82-4.66-3.49-8.92.92-13.08,5.23-5,5.6-8.14,1.62-14.06-2.93-4.35-1.91-8.72,2.71-11.23A13,13,0,0,0,401,104c1.71-2.09,1.32-4.77-1-6-3.1-1.6-6.41-2.39-9.72-.51-6.33,3.59-10.79,8.59-11.49,16.15a2.45,2.45,0,0,1-2,2.56,17.89,17.89,0,0,0-10.35,8.93c-3,5.64-3.43,11.77-3,18,.29,4-.25,7.52-2.75,10.76a15,15,0,0,0-3,10.47c.52,8.19,4.5,14.81,10.11,20.33C370.39,187.24,372.58,189.33,371.05,192.83Zm-48.05.44c0,10.4,9.91,21.53,19.81,22.58,2.77.29,5.27-.31,6.9-2.93s1-5.09-.66-7.38c-1.57-2.13-3.37-4.11-4.88-6.28-2.91-4.17-4.29-8.46-.94-13.19,2.9-4.09,2.72-8.4.83-13-2.64-6.35-2.39-6.95,2.91-10.89,4.46-3.31,6.61-7.45,5.64-13.15-.66-3.89-3.36-6.55-5.24-9.7s-2.63-6-.08-9.32c3.72-4.78,3.95-9.63.32-14.9-3-4.31-2.36-6,1.71-9.38a9.74,9.74,0,0,1,2.4-1.52c2.43-1,3.64-3.22,4.88-5.27,1-1.7.42-3.37-1.32-4.34a7.82,7.82,0,0,0-6.47-.62C339,97.47,335.3,102.6,335.4,113c0,1.85-.19,2.73-2.33,2.5-4.25-.46-7.64,1.43-10.46,4.4-5.72,6-6.76,13.23-4.93,21a6.32,6.32,0,0,1-1.21,5.9,19.57,19.57,0,0,0-3.94,9.27c-1.55,9.88,1.54,19.49,11.59,22.68,1.54.49,1.53,1.27,1.22,2.61C324.39,185.44,322.75,189.43,323,193.27ZM449.69,183.2c-3.38,5.65-4.5,14.52-2.31,20.31,1.92,5.1,6.17,8.2,10.41,11.22,2.11,1.5,4.32,1,6.31-1.34a3.65,3.65,0,0,0-.21-5.42,31.47,31.47,0,0,0-4.53-3.48c-5.32-3.57-5.32-14.81-.13-17.86,2.85-1.67,3.49-4.48,2.54-7.5A13.5,13.5,0,0,0,459.5,175c-3.24-4.08-1.09-13,4.68-14a11.59,11.59,0,0,0,2.69-1c3.2-1.47,3.91-4.57,1.67-7.27-1.22-1.47-2.53-2.86-3.77-4.32-6.66-7.81-6.61-14,.25-21.69,2.06-2.29,2.73-4.65,1.3-7.56a24,24,0,0,1-1.82-5.07c-1.22-5.14.6-8.16,5.55-9.92,2.38-.85,4.06-2.7,3.92-5.24s-2.28-3.65-4.56-4.25c-1.21-.32-2.31.22-3.4.57-6.68,2.11-10.24,9.6-11.25,16.81-.25,1.78.35,3.78-.27,5.36-.85,2.15-3.43,1-5.12,1.66l-.3.12a19.32,19.32,0,0,0-10.81,25.5c1,2.26.57,3.59-.82,5.34-7.11,9-4.06,22.22,1.49,26.81A46.61,46.61,0,0,0,449.69,183.2ZM420.38,92.85A10.8,10.8,0,0,0,414,94.63c-6.45,3.72-10.52,13-7.77,20.83,1.83,5.2.86,9.3-.57,14.16-4.13,14.09,2.18,24.32,15.54,30.41a5.49,5.49,0,0,0,2.17.43,3.88,3.88,0,0,0,2.42-7.09,17,17,0,0,0-2.2-1.27c-7.06-4-9.44-10.41-6.57-17.83q1.27-3.26,2.73-6.44a10.13,10.13,0,0,0-.33-9.71c-2.91-5.27-2.19-8.5,2.25-12.7,1.54-1.45,3.47-2.43,4.79-4.17,2.59-3.41,1.55-6.75-2.64-7.94A22,22,0,0,0,420.38,92.85Zm174,30.26c-1.66-.22-3.12-.42-4.58-.6-2.55-.31-4,.6-4.28,3.37a30.93,30.93,0,0,0,.46,10.43,3.54,3.54,0,0,1-.83,3.71c-4.09,4.55-4.67,9.71-2.71,15.43a22.6,22.6,0,0,0,5.77,9c1.36,1.32,1.52,2.13.3,3.87-4.3,6.1-5.29,12.69-1.39,19.39,1.06,1.83.94,2.84-.56,4.24-5.43,5-5.06,12.64-2.78,18a3.16,3.16,0,0,0,2.25,2l11,2.87a7.71,7.71,0,0,0-2.2-2.72c-5.84-5.56-5.5-12.83.82-17.85,3.32-2.64,3.45-4.59.45-7.59-1.67-1.67-3-3.31-3.06-6-.1-5.32,2.87-8.44,7-10.82,2.39-1.38,2.15-3,.56-4.58a39.48,39.48,0,0,0-4.81-4.59c-6.63-4.58-8.93-11.83-2.58-18a4.84,4.84,0,0,0,1.3-5.79C592.5,132.44,593,127.9,594.42,123.11Zm-295,48.16c-.95.1-1.91.12-2.84.3-10.79,2.13-16.21,9.22-10.43,19.71,1.2,2.18.46,3.54-1,5-2.28,2.27-3.71,5-3.36,8.26.63,5.91,8.15,12.2,14.19,12a6.73,6.73,0,0,0,6.12-3.36c1.26-2.31.33-4.55-1-6.56a40.72,40.72,0,0,0-2.9-3.78c-1.52-1.81-1.63-3.39.05-5.32,2.45-2.8,2.64-6.12,1.32-9.55-2-5.16-1.9-5.43,2.61-8.95,1.67-1.29,3.16-2.71,2.39-5.05S301.71,171.11,299.42,171.27Zm243.69-65.62a7,7,0,0,0-5.34,1.65c-7.94,6.9-10.37,14.06-6.45,24.08.69,1.76.79,2.78-.44,4.15-4.88,5.41-5.72,11.66-3.47,18.4,2,6,5.13,11.21,11.22,13.85,2.11.92,4.5,1.17,5.92-1.3,1.33-2.29.08-4.14-1.62-5.57a25.5,25.5,0,0,1-6.15-8.41c-2.39-4.69-1.92-9.21,1.57-13,3.26-3.51,3.9-6.53,1.53-11-3.71-7.06-1.17-12.79,6.1-15.94,2.84-1.23,3.2-4.09.77-6C545.66,105.66,544.38,105.71,543.11,105.65Zm12.74,67.77c.69,8.4,4.34,15.27,12.53,19.21,2,1,4,1.07,5.35-1s.35-3.65-1.18-5a34.62,34.62,0,0,1-6-6.52c-3.73-5.68-3.27-11.4,1.36-16.19s4.7-5.51,1.48-11.32c-.31-.55-.63-1.1-.9-1.68-2.82-6.16-.7-11.56,5.56-14,1.76-.69,2.85-1.61,2.83-3.69,0-4.35-2.75-6.13-6.71-4.29-9.09,4.23-13,14.9-8.85,24.89.83,2,.78,3.29-.7,5C557.14,162.85,556.22,167.89,555.85,173.42ZM615,199.77c-.31,8.54,5.93,17.17,14,19.6,2.2.66,3.81.26,4.83-1.72s.08-3.67-1.7-4.84c-1.58-1.06-3.26-1.93-4.44-3.54-4.85-6.57-4.86-12.45.12-19.05,2-2.71,3-5.05.85-8.56-3.89-6.47-2.93-14.54,5.21-17.66,3.42-1.31,4.35-3.17,3.27-5.41-1.24-2.56-3.53-3-6.81-1.67-11.51,4.81-14,14.35-9.71,25.77.87,2.32.7,3.74-.92,5.3C616.4,191.21,615.16,195.27,615,199.77Zm-208.47-.11c.45,9.66,4.45,10.52,12,12.42,2.13.53,4.31.08,5.38-2.3s-.35-3.67-2-5.09c-4.06-3.48-4.58-6.24-2.47-11.2,1-2.37,2-4.92,1.07-7.39-1.45-3.8-.33-6.22,3-8.21,2.38-1.42,2.24-4,1.73-6.26s-2.48-3.38-4.82-3.28c-5.17.21-10,1.39-12.75,6.32-2.61,4.61-2.64,9.32.32,13.83a3.13,3.13,0,0,1,.21,3.49A16.48,16.48,0,0,0,406.54,199.66Zm246.1-67c-5.38-.07-12.69,5.72-13.7,10.8-.85,4.3-1.14,8.82.43,12.87,1.32,3.39,1.06,5.52-1.77,7.75-1.47,1.17-2.13,3.17-2.6,5-2.43,9.59,2.3,20.5,11.52,25.71,1.87,1.06,3.66,1,5.13-.76s.72-3.58-.72-5.06c-1.93-2-4.14-3.67-5.67-6-3.69-5.61-4.81-13.36,1.89-17.37a5.1,5.1,0,0,0,2.3-5.26c-.18-1.64-1.1-3-1.76-4.41-2.69-5.85-1.82-10.8,2.36-14.06,1.15-.9,2.56-1,3.75-1.64,1.71-.94,2.88-2.32,2.33-4.37C655.63,134.05,654.4,132.75,652.64,132.68Zm-128,67.82c-.45,3.72,1.46,6.79,3.51,9.79s4.58,5.13,8.69,4.51c1.91-.29,2.4-1,2.48-2.85.15-3.94-2.73-6.28-4.46-9.23-2.28-3.87-2.16-5.3.93-8.34,3.61-3.56,3.8-4.95.62-8.89-1.84-2.27-1-3.59,1.11-4.74.46-.24,1.09-.26,1.46-.58,1.4-1.21,3.49-2.2,2.87-4.47-.58-2.12-.19-4.91-2.77-6-2.24-1-4.14.2-5.72,1.74-4.62,4.52-7.6,9.63-5.68,16.44.4,1.41.61,2.78-.55,4.16A11.55,11.55,0,0,0,524.64,200.5Zm147.79-41.57c-.33.11-.75.2-1.14.36-6.59,2.69-14.85,14.81-9,22.66.63.85,1.4,1.83.16,3.06-7.7,7.63-3.46,19.47,4.13,25.56,1.26,1,2.64,1.64,4,.34s.91-2.9-.18-4.28a57.91,57.91,0,0,1-3.92-5c-3.49-5.54-2.68-10.3,2.36-14.46,1.76-1.46,2.12-3.06,1-5-.48-.83-1-1.63-1.47-2.46-2.93-5.09-1.51-10.13,3.69-12.79a9.77,9.77,0,0,0,3.23-2.52c.94-1.15.64-2.38,0-3.57A3.16,3.16,0,0,0,672.43,158.93ZM836.2,214.75a4.13,4.13,0,0,0-4.73,3.05c-.78,2.38.29,4.4,2.14,5.88,2.53,2,5.62,2.35,8.71,2.29,2.32,0,3.08-1.56,2.78-3.68C844.53,218.4,840.38,214.83,836.2,214.75Z"/><path class="cls-1" d="M128.77,112a40.37,40.37,0,0,1,3.9-18.67c2.68-5.46,8-8,13.45-9.92,7.62-2.61,15.35-4.91,22.51-8.69a18,18,0,0,0,7.58-7.48,22.15,22.15,0,0,1,11.7-9.85c3.75-1.51,6.69,0,7.94,3.82.61,1.92,1.11,3.87,1.72,5.79.7,2.19,2,2.69,4.17,1.68,3.82-1.83,7.46-4.07,11.53-5.36,4.78-1.53,9.68-1.1,14.54-.71,10.19.8,20.34-.44,30.5-.57,13.68-.18,27.08-4,40.88-2.78a85.92,85.92,0,0,1,17.19,3.1c13.53,4.06,27.35,6.78,41.17,9.54a10.43,10.43,0,0,1,1.86.4c1.33.52,2.7,1.28,2.52,2.89s-1.84,1.11-2.86,1.22c-32.83,3.39-65.59,7.3-97.9,14.14-20.72,4.38-41.53,8.42-61.79,14.83-5.09,1.61-10.66,1.71-16,2.52-7.84,1.18-14.9,4.82-22.35,7.22-5.35,1.72-10.68,3.47-15.86,5.68-4.45,1.89-8.83,1.06-13-.77C128.55,118.42,128.56,114.91,128.77,112Z"/><path class="cls-1" d="M354.91,238.28c-9.88,4.61-19.67,6.47-29.12,9.45-17,5.35-34.53,8.46-51.68,13.12a23,23,0,0,1-6.6.82c-10.9-.28-21.52,1.89-32.22,3.4a61,61,0,0,0-9.35,1.78c-6.7,2.08-12.29-.18-17.59-3.92-6.23-4.39-12-9.46-18.95-12.81-6.66-3.2-13.68-3.39-20.84-2.56-2.63.3-5.27.69-7.9.75-5.75.14-10.4-2.24-14.28-6.44-4.25-4.59-9.25-7.73-15.88-7.38a28.22,28.22,0,0,0-6.54,1.17c-5,1.47-8.83-1.44-9.27-6.81-.74-9.17,2.6-16.94,8.27-23.7,6.68-8,3.87-7,14.08-4.36,13,3.28,24.69,9.47,37,14.37,10.37,4.14,21.13,6.87,31.89,9.66,13.72,3.55,27.59,6.57,40.93,11.55,7.27,2.71,15.05,3.42,22.72,4.44,6,.78,11.92,1.69,17.9,2.29a144.7,144.7,0,0,0,22.23.11c.84-.05,1.68-.28,2.51-.26,12.39.35,24.5-1.75,36.56-4.23A27,27,0,0,1,354.91,238.28Z"/><path class="cls-1" d="M255.84,153.05c3.07,3.15,3.28,6,.29,9.49a16.05,16.05,0,0,0-3.89,11c-2.5-3.68-3.92-6.92-3.13-11.18S253.82,156.32,255.84,153.05Z"/><path class="cls-1" d="M256.08,133.7A30.35,30.35,0,0,0,254.87,149C249.82,146.19,250.24,137.09,256.08,133.7Z"/><path class="cls-2" d="M371.05,192.83c1.53-3.5-.66-5.59-3.28-8.17-5.61-5.52-9.59-12.14-10.11-20.33a15,15,0,0,1,3-10.47c2.5-3.24,3-6.78,2.75-10.76-.46-6.19,0-12.32,3-18a17.89,17.89,0,0,1,10.35-8.93,2.45,2.45,0,0,0,2-2.56c.7-7.56,5.16-12.56,11.49-16.15,3.31-1.88,6.62-1.09,9.72.51,2.33,1.2,2.72,3.88,1,6a13,13,0,0,1-3.82,3.31c-4.62,2.51-5.64,6.88-2.71,11.23,4,5.92,3.61,9.11-1.62,14.06-4.41,4.16-4.74,8.42-.92,13.08,1.34,1.64,2.82,3.17,4.3,4.7,4,4.15,3.83,9.25-.63,13a36.8,36.8,0,0,1-3.94,2.67c-4.16,2.66-5.07,4.85-3.94,9.64a14.89,14.89,0,0,0,.85,3.06c1.85,3.92.89,7.3-1.46,10.72-3.77,5.49-3.63,8,.2,13.57,1.27,1.83,2.75,3.52,3.92,5.41,2.13,3.45,1.85,6.71-.58,9-1.9,1.8-5.07,1.69-8.27-.31a17.43,17.43,0,0,1-5.44-5.3C373.27,206.19,371.65,199.86,371.05,192.83Zm6.34-45.27c.85,5.92-3.15,10.19-2.95,15.35a26.19,26.19,0,0,1,3.25-6.5C379.85,153.61,379.63,151,377.39,147.56Z"/><path class="cls-2" d="M323,193.27c-.25-3.84,1.39-7.83,2.34-12,.31-1.34.32-2.12-1.22-2.61-10.05-3.19-13.14-12.8-11.59-22.68a19.57,19.57,0,0,1,3.94-9.27,6.32,6.32,0,0,0,1.21-5.9c-1.83-7.78-.79-15,4.93-21,2.82-3,6.21-4.86,10.46-4.4,2.14.23,2.35-.65,2.33-2.5C335.3,102.6,339,97.47,348.81,94a7.82,7.82,0,0,1,6.47.62c1.74,1,2.34,2.64,1.32,4.34-1.24,2-2.45,4.23-4.88,5.27a9.74,9.74,0,0,0-2.4,1.52c-4.07,3.43-4.68,5.07-1.71,9.38,3.63,5.27,3.4,10.12-.32,14.9-2.55,3.28-1.83,6.13.08,9.32s4.58,5.81,5.24,9.7c1,5.7-1.18,9.84-5.64,13.15-5.3,3.94-5.55,4.54-2.91,10.89,1.89,4.57,2.07,8.88-.83,13-3.35,4.73-2,9,.94,13.19,1.51,2.17,3.31,4.15,4.88,6.28,1.69,2.29,2.32,4.73.66,7.38s-4.13,3.22-6.9,2.93C332.91,214.8,323,203.67,323,193.27Zm7.51-61.88a8.67,8.67,0,0,0-1.21,11,5.73,5.73,0,0,1,.56,6c-2,3.53-2.46,7.4-3.49,11.16-.75,2.7.18,5,1.73,7.15.44.61.81,1.77,1.85,1.32a2.46,2.46,0,0,0,1.34-2.05,23.49,23.49,0,0,1,3.89-10,1.85,1.85,0,0,0,.22-2C332.2,146.78,331.5,139.07,330.51,131.39Z"/><path class="cls-2" d="M449.69,183.2a46.61,46.61,0,0,1-10.76-6.38c-5.55-4.59-8.6-17.82-1.49-26.81,1.39-1.75,1.8-3.08.82-5.34a19.32,19.32,0,0,1,10.81-25.5l.3-.12c1.69-.7,4.27.49,5.12-1.66.62-1.58,0-3.58.27-5.36,1-7.21,4.57-14.7,11.25-16.81,1.09-.35,2.19-.89,3.4-.57,2.28.6,4.42,1.7,4.56,4.25s-1.54,4.39-3.92,5.24c-4.95,1.76-6.77,4.78-5.55,9.92a24,24,0,0,0,1.82,5.07c1.43,2.91.76,5.27-1.3,7.56-6.86,7.65-6.91,13.88-.25,21.69,1.24,1.46,2.55,2.85,3.77,4.32,2.24,2.7,1.53,5.8-1.67,7.27a11.59,11.59,0,0,1-2.69,1c-5.77,1.05-7.92,9.94-4.68,14a13.5,13.5,0,0,1,2.27,4.16c1,3,.31,5.83-2.54,7.5-5.19,3.05-5.19,14.29.13,17.86a31.47,31.47,0,0,1,4.53,3.48,3.65,3.65,0,0,1,.21,5.42c-2,2.38-4.2,2.84-6.31,1.34-4.24-3-8.49-6.12-10.41-11.22C445.19,197.72,446.31,188.85,449.69,183.2ZM448,172.47l.77-.46c-.31-7.06,1.85-13.16,7-18.09.93-.9.59-1.62.09-2.52-4.08-7.28-6.9-14.76-3.25-23.4-4.43,1-6.26,3.7-6.8,7.48a13.25,13.25,0,0,0,2.26,9c2,3.27,1.74,5.5-.82,8.32-.64.7-1.4,1.29-2.06,2-4.17,4.42-4.4,8.87-.65,13.63C445.59,169.84,446.82,171.13,448,172.47Z"/><path class="cls-2" d="M500.38,123a65.32,65.32,0,0,1,.64-9.78c.52-4.92,7.49-12.21,12.41-12.86a5.49,5.49,0,0,1,5.33,2.17c1.27,1.74-.5,2.87-1.51,4a18.83,18.83,0,0,1-2.17,2.29c-5.43,4.45-6.77,8.7-4.75,15.37.34,1.11.83,2.18,1.14,3.3.66,2.41.41,4.56-1.66,6.34-4.13,3.55-4.8,7.11-2.45,12.21a41,41,0,0,0,5.54,8.12c2.53,3.19,2.5,5.92.36,7.91a5.32,5.32,0,0,1-2.25,1,10,10,0,0,0-5.23,14.54,36.41,36.41,0,0,1,2.21,3.48c1.52,3.18,1.19,5.31-1.71,7.18-5.08,3.27-5.44,11.13-2.73,16,1.66,3,4.13,5.38,6.28,8,.65.79,1.5,1.77,1,2.84s-1.66.76-2.59.84c-7.16.59-8.78-.31-12.18-6.81-3.17-6.07-5.58-12.24-2.39-19.1.63-1.35.05-1.74-1.24-2.17-8.46-2.8-12.06-9.43-13.67-17.62-1.34-6.82-.59-13.1,4.46-18.34,1.17-1.21.46-2.3,0-3.49-3.32-8.21.53-21.87,10.7-25.14a11.12,11.12,0,0,1,6.47-.33l.26.43.16-.23Zm-.35,7c-9.52,2.57-11.81,12.44-7.29,18.95,2.35,3.39,1.85,5.1-1.58,7.35a5.79,5.79,0,0,0-2.94,4.65,35.94,35.94,0,0,0,.45,9.82,12.07,12.07,0,0,0,6.66,8.39c-.91-8.12.75-15.09,6.27-20.82,1-1.07-.06-1.68-.46-2.45-2.13-4.15-4-8.27-4.07-13.17A30.68,30.68,0,0,1,500,130Z"/><path class="cls-2" d="M420.38,92.85a22,22,0,0,1,3.46.46c4.19,1.19,5.23,4.53,2.64,7.94-1.32,1.74-3.25,2.72-4.79,4.17-4.44,4.2-5.16,7.43-2.25,12.7a10.13,10.13,0,0,1,.33,9.71q-1.45,3.18-2.73,6.44c-2.87,7.42-.49,13.84,6.57,17.83a17,17,0,0,1,2.2,1.27,3.88,3.88,0,0,1-2.42,7.09,5.49,5.49,0,0,1-2.17-.43c-13.36-6.09-19.67-16.32-15.54-30.41,1.43-4.86,2.4-9,.57-14.16-2.75-7.8,1.32-17.11,7.77-20.83A10.8,10.8,0,0,1,420.38,92.85Z"/><path class="cls-2" d="M594.42,123.11c-1.47,4.79-1.92,9.33.18,13.82a4.84,4.84,0,0,1-1.3,5.79c-6.35,6.15-4,13.4,2.58,18a39.48,39.48,0,0,1,4.81,4.59c1.59,1.55,1.83,3.2-.56,4.58-4.15,2.38-7.12,5.5-7,10.82,0,2.67,1.39,4.31,3.06,6,3,3,2.87,5-.45,7.59-6.32,5-6.66,12.29-.82,17.85a7.71,7.71,0,0,1,2.2,2.72l-11-2.87a3.16,3.16,0,0,1-2.25-2c-2.28-5.35-2.65-12.95,2.78-18,1.5-1.4,1.62-2.41.56-4.24-3.9-6.7-2.91-13.29,1.39-19.39,1.22-1.74,1.06-2.55-.3-3.87a22.6,22.6,0,0,1-5.77-9c-2-5.72-1.38-10.88,2.71-15.43a3.54,3.54,0,0,0,.83-3.71,30.93,30.93,0,0,1-.46-10.43c.29-2.77,1.73-3.68,4.28-3.37C591.3,122.69,592.76,122.89,594.42,123.11Z"/><path class="cls-2" d="M299.42,171.27c2.29-.16,4.34.26,5.15,2.73s-.72,3.76-2.39,5.05c-4.51,3.52-4.58,3.79-2.61,8.95,1.32,3.43,1.13,6.75-1.32,9.55-1.68,1.93-1.57,3.51-.05,5.32a40.72,40.72,0,0,1,2.9,3.78c1.33,2,2.26,4.25,1,6.56a6.73,6.73,0,0,1-6.12,3.36c-6,.17-13.56-6.12-14.19-12-.35-3.24,1.08-6,3.36-8.26,1.46-1.46,2.2-2.82,1-5-5.78-10.49-.36-17.58,10.43-19.71C297.51,171.39,298.47,171.37,299.42,171.27Z"/><path class="cls-2" d="M543.11,105.65c1.27.06,2.55,0,3.64.88,2.43,1.93,2.07,4.79-.77,6-7.27,3.15-9.81,8.88-6.1,15.94,2.37,4.51,1.73,7.53-1.53,11-3.49,3.76-4,8.28-1.57,13a25.5,25.5,0,0,0,6.15,8.41c1.7,1.43,3,3.28,1.62,5.57-1.42,2.47-3.81,2.22-5.92,1.3-6.09-2.64-9.22-7.86-11.22-13.85-2.25-6.74-1.41-13,3.47-18.4,1.23-1.37,1.13-2.39.44-4.15-3.92-10-1.49-17.18,6.45-24.08A7,7,0,0,1,543.11,105.65Z"/><path class="cls-2" d="M555.85,173.42c.37-5.53,1.29-10.57,4.73-14.61,1.48-1.75,1.53-3,.7-5-4.11-10-.24-20.66,8.85-24.89,4-1.84,6.67-.06,6.71,4.29,0,2.08-1.07,3-2.83,3.69-6.26,2.44-8.38,7.84-5.56,14,.27.58.59,1.13.9,1.68,3.22,5.81,3.12,6.55-1.48,11.32s-5.09,10.51-1.36,16.19a34.62,34.62,0,0,0,6,6.52c1.53,1.37,2.52,3,1.18,5s-3.37,2-5.35,1C560.19,188.69,556.54,181.82,555.85,173.42Z"/><path class="cls-2" d="M615,199.77c.15-4.5,1.39-8.56,4.71-11.78,1.62-1.56,1.79-3,.92-5.3-4.24-11.42-1.8-21,9.71-25.77,3.28-1.37,5.57-.89,6.81,1.67,1.08,2.24.15,4.1-3.27,5.41-8.14,3.12-9.1,11.19-5.21,17.66,2.11,3.51,1.19,5.85-.85,8.56-5,6.6-5,12.48-.12,19.05,1.18,1.61,2.86,2.48,4.44,3.54,1.78,1.17,2.79,2.73,1.7,4.84s-2.63,2.38-4.83,1.72C620.94,216.94,614.7,208.31,615,199.77Z"/><path class="cls-2" d="M406.54,199.66a16.48,16.48,0,0,1,1.72-7.67,3.13,3.13,0,0,0-.21-3.49c-3-4.51-2.93-9.22-.32-13.83,2.78-4.93,7.58-6.11,12.75-6.32,2.34-.1,4.27.84,4.82,3.28s.65,4.84-1.73,6.26c-3.34,2-4.46,4.41-3,8.21.94,2.47-.07,5-1.07,7.39-2.11,5-1.59,7.72,2.47,11.2,1.65,1.42,3,2.76,2,5.09s-3.25,2.83-5.38,2.3C411,210.18,407,209.32,406.54,199.66Z"/><path class="cls-2" d="M652.64,132.68c1.76.07,3,1.37,3.49,3.22.55,2-.62,3.43-2.33,4.37-1.19.66-2.6.74-3.75,1.64-4.18,3.26-5,8.21-2.36,14.06.66,1.44,1.58,2.77,1.76,4.41a5.1,5.1,0,0,1-2.3,5.26c-6.7,4-5.58,11.76-1.89,17.37,1.53,2.34,3.74,4,5.67,6,1.44,1.48,2.29,3.12.72,5.06s-3.26,1.82-5.13.76c-9.22-5.21-13.95-16.12-11.52-25.71.47-1.86,1.13-3.86,2.6-5,2.83-2.23,3.09-4.36,1.77-7.75-1.57-4-1.28-8.57-.43-12.87C640,138.4,647.26,132.61,652.64,132.68Z"/><path class="cls-2" d="M524.64,200.5a11.55,11.55,0,0,1,2.49-8.47c1.16-1.38,1-2.75.55-4.16-1.92-6.81,1.06-11.92,5.68-16.44,1.58-1.54,3.48-2.7,5.72-1.74,2.58,1.1,2.19,3.89,2.77,6,.62,2.27-1.47,3.26-2.87,4.47-.37.32-1,.34-1.46.58-2.15,1.15-2.95,2.47-1.11,4.74,3.18,3.94,3,5.33-.62,8.89-3.09,3-3.21,4.47-.93,8.34,1.73,2.95,4.61,5.29,4.46,9.23-.08,1.81-.57,2.56-2.48,2.85-4.11.62-6.61-1.47-8.69-4.51S524.19,204.22,524.64,200.5Z"/><path class="cls-2" d="M672.43,158.93a3.16,3.16,0,0,1,2.81,1.9c.6,1.19.9,2.42,0,3.57a9.77,9.77,0,0,1-3.23,2.52c-5.2,2.66-6.62,7.7-3.69,12.79.47.83,1,1.63,1.47,2.46,1.13,2,.77,3.56-1,5-5,4.16-5.85,8.92-2.36,14.46a57.91,57.91,0,0,0,3.92,5c1.09,1.38,1.58,2.9.18,4.28s-2.71.68-4-.34c-7.59-6.09-11.83-17.93-4.13-25.56,1.24-1.23.47-2.21-.16-3.06-5.8-7.85,2.46-20,9-22.66C671.68,159.13,672.1,159,672.43,158.93Z"/><path class="cls-2" d="M836.2,214.75c4.18.08,8.33,3.65,8.9,7.54.3,2.12-.46,3.64-2.78,3.68-3.09.06-6.18-.27-8.71-2.29-1.85-1.48-2.92-3.5-2.14-5.88A4.13,4.13,0,0,1,836.2,214.75Z"/><path class="cls-1" d="M377.39,147.56c2.24,3.46,2.46,6.05.3,8.85a26.19,26.19,0,0,0-3.25,6.5C374.24,157.75,378.24,153.48,377.39,147.56Z"/><path class="cls-1" d="M330.51,131.39c1,7.68,1.69,15.39,4.89,22.53a1.85,1.85,0,0,1-.22,2,23.49,23.49,0,0,0-3.89,10A2.46,2.46,0,0,1,330,168c-1,.45-1.41-.71-1.85-1.32-1.55-2.12-2.48-4.45-1.73-7.15,1-3.76,1.53-7.63,3.49-11.16a5.73,5.73,0,0,0-.56-6A8.67,8.67,0,0,1,330.51,131.39Z"/><path class="cls-1" d="M448,172.47c-1.17-1.34-2.4-2.63-3.5-4-3.75-4.76-3.52-9.21.65-13.63.66-.69,1.42-1.28,2.06-2,2.56-2.82,2.84-5.05.82-8.32a13.25,13.25,0,0,1-2.26-9c.54-3.78,2.37-6.47,6.8-7.48-3.65,8.64-.83,16.12,3.25,23.4.5.9.84,1.62-.09,2.52-5.11,4.93-7.27,11-7,18.09Z"/><path class="cls-1" d="M500,130a30.68,30.68,0,0,0-3,12.72c0,4.9,1.94,9,4.07,13.17.4.77,1.49,1.38.46,2.45-5.52,5.73-7.18,12.7-6.27,20.82a12.07,12.07,0,0,1-6.66-8.39,35.94,35.94,0,0,1-.45-9.82,5.79,5.79,0,0,1,2.94-4.65c3.43-2.25,3.93-4,1.58-7.35C488.22,142.4,490.51,132.53,500,130Z"/><path class="cls-1" d="M500.38,123l.41.21-.16.23-.26-.43Z"/></g></svg>